<svg width="17" height="16" viewBox="0 0 17 16" fill="none" xmlns="http://www.w3.org/2000/svg">
<path d="M1.50209 0C1.205 0 0.914589 0.108275 0.667572 0.311133C0.420556 0.513991 0.22803 0.802321 0.11434 1.13966C0.000650833 1.477 -0.0290955 1.8482 0.0288628 2.20632C0.0868212 2.56444 0.229881 2.89339 0.439952 3.15158C0.650022 3.40977 0.917668 3.5856 1.20904 3.65683C1.50042 3.72807 1.80244 3.69151 2.07691 3.55178C2.35138 3.41205 2.58597 3.17542 2.75103 2.87182C2.91608 2.56822 3.00417 2.21129 3.00417 1.84615C3.00417 1.35652 2.84592 0.886947 2.56422 0.540726C2.28253 0.194505 1.90046 0 1.50209 0ZM1.50209 6.15385C1.205 6.15385 0.914589 6.26212 0.667572 6.46498C0.420556 6.66784 0.22803 6.95617 0.11434 7.29351C0.000650833 7.63085 -0.0290955 8.00205 0.0288628 8.36017C0.0868212 8.71829 0.229881 9.04724 0.439952 9.30543C0.650022 9.56362 0.917668 9.73945 1.20904 9.81068C1.50042 9.88191 1.80244 9.84535 2.07691 9.70562C2.35138 9.56589 2.58597 9.32927 2.75103 9.02567C2.91608 8.72207 3.00417 8.36513 3.00417 8C3.00417 7.51037 2.84592 7.04079 2.56422 6.69457C2.28253 6.34835 1.90046 6.15385 1.50209 6.15385ZM1.50209 12.3077C1.205 12.3077 0.914589 12.416 0.667572 12.6188C0.420556 12.8217 0.22803 13.11 0.11434 13.4474C0.000650833 13.7847 -0.0290955 14.1559 0.0288628 14.514C0.0868212 14.8721 0.229881 15.2011 0.439952 15.4593C0.650022 15.7175 0.917668 15.8933 1.20904 15.9645C1.50042 16.0358 1.80244 15.9992 2.07691 15.8595C2.35138 15.7197 2.58597 15.4831 2.75103 15.1795C2.91608 14.8759 3.00417 14.519 3.00417 14.1538C3.00417 13.6642 2.84592 13.1946 2.56422 12.8484C2.28253 12.5022 1.90046 12.3077 1.50209 12.3077ZM15.5216 12.9231H5.50765C5.37486 12.9231 5.2475 12.9879 5.1536 13.1033C5.05971 13.2187 5.00695 13.3753 5.00695 13.5385V14.7692C5.00695 14.9324 5.05971 15.089 5.1536 15.2044C5.2475 15.3198 5.37486 15.3846 5.50765 15.3846H15.5216C15.6544 15.3846 15.7817 15.3198 15.8756 15.2044C15.9695 15.089 16.0223 14.9324 16.0223 14.7692V13.5385C16.0223 13.3753 15.9695 13.2187 15.8756 13.1033C15.7817 12.9879 15.6544 12.9231 15.5216 12.9231ZM15.5216 0.615385H5.50765C5.37486 0.615385 5.2475 0.68022 5.1536 0.795627C5.05971 0.911034 5.00695 1.06756 5.00695 1.23077V2.46154C5.00695 2.62475 5.05971 2.78127 5.1536 2.89668C5.2475 3.01209 5.37486 3.07692 5.50765 3.07692H15.5216C15.6544 3.07692 15.7817 3.01209 15.8756 2.89668C15.9695 2.78127 16.0223 2.62475 16.0223 2.46154V1.23077C16.0223 1.06756 15.9695 0.911034 15.8756 0.795627C15.7817 0.68022 15.6544 0.615385 15.5216 0.615385V0.615385ZM15.5216 6.76923H5.50765C5.37486 6.76923 5.2475 6.83407 5.1536 6.94947C5.05971 7.06488 5.00695 7.2214 5.00695 7.38461V8.61538C5.00695 8.77859 5.05971 8.93512 5.1536 9.05053C5.2475 9.16593 5.37486 9.23077 5.50765 9.23077H15.5216C15.6544 9.23077 15.7817 9.16593 15.8756 9.05053C15.9695 8.93512 16.0223 8.77859 16.0223 8.61538V7.38461C16.0223 7.2214 15.9695 7.06488 15.8756 6.94947C15.7817 6.83407 15.6544 6.76923 15.5216 6.76923Z" fill="#7E7E7E"/>
</svg>
