<svg width="14" height="20" viewBox="0 0 14 20" fill="none" xmlns="http://www.w3.org/2000/svg">
<path d="M11.0813 0H1.95553C0.875913 0 0 0.839844 0 1.875V18.125C0 19.1602 0.875913 20 1.95553 20H11.0813C12.1609 20 13.0368 19.1602 13.0368 18.125V1.875C13.0368 0.839844 12.1609 0 11.0813 0ZM6.51842 18.75C5.79732 18.75 5.21474 18.1914 5.21474 17.5C5.21474 16.8086 5.79732 16.25 6.51842 16.25C7.23952 16.25 7.82211 16.8086 7.82211 17.5C7.82211 18.1914 7.23952 18.75 6.51842 18.75ZM11.0813 14.5312C11.0813 14.7891 10.8613 15 10.5924 15H2.44441C2.17552 15 1.95553 14.7891 1.95553 14.5312V2.34375C1.95553 2.08594 2.17552 1.875 2.44441 1.875H10.5924C10.8613 1.875 11.0813 2.08594 11.0813 2.34375V14.5312Z" fill="#7E7E7E"/>
</svg>
