<svg width="19" height="18" viewBox="0 0 19 18" fill="none" xmlns="http://www.w3.org/2000/svg">
<path d="M17.6158 4.16953L15.7165 0.527344C15.5468 0.200391 15.2454 0 14.9235 0H3.10043C2.77852 0 2.47709 0.200391 2.30735 0.527344L0.408061 4.16953C-0.572313 6.05039 0.296855 8.66602 2.12884 8.96484C2.26053 8.98594 2.39515 8.99648 2.52977 8.99648C3.39601 8.99648 4.16275 8.53945 4.68952 7.83281C5.21629 8.53945 5.98595 8.99648 6.84927 8.99648C7.71551 8.99648 8.48225 8.53945 9.00902 7.83281C9.53579 8.53945 10.3055 8.99648 11.1688 8.99648C12.035 8.99648 12.8018 8.53945 13.3285 7.83281C13.8582 8.53945 14.625 8.99648 15.4883 8.99648C15.6258 8.99648 15.7575 8.98594 15.8892 8.96484C17.727 8.66953 18.5991 6.05391 17.6158 4.16953V4.16953ZM15.4941 10.125C15.2015 10.125 14.9118 10.0723 14.6308 9.99141V13.5H3.39308V9.99141C3.11214 10.0688 2.82242 10.125 2.52977 10.125C2.35418 10.125 2.17566 10.1109 2.003 10.0828C1.83912 10.0547 1.67816 10.009 1.52305 9.95625V16.875C1.52305 17.4973 1.94154 18 2.45953 18H15.5702C16.0882 18 16.5067 17.4973 16.5067 16.875V9.95625C16.3487 10.0125 16.1906 10.0582 16.0267 10.0828C15.8482 10.1109 15.6726 10.125 15.4941 10.125Z" fill="#9356DC"/>
</svg>
